<?xml version="1.0" encoding="UTF-8"?>
<svg enable-background="new 0 0 595.28 841.89" viewBox="0 0 595.28 841.89" xmlns="http://www.w3.org/2000/svg">
 <defs>
  <linearGradient id="e" x2="0" y1="1219.2" y2="1067.6" gradientTransform="matrix(-.8947 .4467 .4467 .8947 427.56 -835.25)" gradientUnits="userSpaceOnUse">
   <stop stop-color="#1d71b8" offset="0"/>
   <stop stop-color="#007dc3" offset=".0705"/>
   <stop stop-color="#0089ce" offset=".1675"/>
   <stop stop-color="#0092d7" offset=".2742"/>
   <stop stop-color="#0098dd" offset=".3924"/>
   <stop stop-color="#009ce1" offset=".5281"/>
   <stop stop-color="#009ee3" offset=".6968"/>
   <stop stop-color="#009fe3" offset="1"/>
  </linearGradient>
  <linearGradient id="d" x2="0" y1="1499.2" y2="1336" gradientTransform="matrix(-.7966 .6046 .6046 .7966 189.92 -1066.3)" gradientUnits="userSpaceOnUse">
   <stop stop-color="#1d71b8" offset="0"/>
   <stop stop-color="#1e74bb" offset=".055"/>
   <stop stop-color="#2c9bd7" offset=".6948"/>
   <stop stop-color="#36a9e1" offset="1"/>
  </linearGradient>
  <linearGradient id="c" x2="0" y1="1329.2" y2="1118.4" gradientTransform="matrix(-.8869 .4619 .4619 .8869 394.62 -843.31)" gradientUnits="userSpaceOnUse">
   <stop stop-color="#1d71b8" offset="0"/>
   <stop stop-color="#1e77bd" offset=".0464"/>
   <stop stop-color="#228acb" offset=".1952"/>
   <stop stop-color="#2a98d5" offset=".3548"/>
   <stop stop-color="#31a2dc" offset=".5282"/>
   <stop stop-color="#35a8e0" offset=".7258"/>
   <stop stop-color="#36a9e1" offset="1"/>
  </linearGradient>
  <linearGradient id="b" x2="0" y1="321.33" y2="168.23" gradientUnits="userSpaceOnUse">
   <stop stop-color="#f2f2f2" offset="0"/>
   <stop stop-color="#f2f2f2" offset="1"/>
  </linearGradient>
  <linearGradient id="a" x2="0" y1="477.48" y2="339.33" gradientUnits="userSpaceOnUse">
   <stop stop-color="#d3dee8" offset="0"/>
   <stop stop-color="#a8d4e0" offset="1"/>
  </linearGradient>
  <linearGradient id="g" x2="0" y1="369.57" y2="258.99" gradientUnits="userSpaceOnUse">
   <stop stop-color="#f2f2f2" offset="0"/>
   <stop stop-color="#f2f2f2" offset="1"/>
  </linearGradient>
  <linearGradient id="f" x2="0" y1="405.32" y2="339.83" gradientUnits="userSpaceOnUse">
   <stop stop-color="#f2f2f2" offset="0"/>
   <stop stop-color="#f2f2f2" offset="1"/>
  </linearGradient>
 </defs>
 <path d="m173.285,575.547c0,.009-.008.009-.008.009-.006-.107-.012-.215-.029-.326-.105-1.014-.2-2.024-.251-3.025-1.767-20.058-1.824-58.664-8.297-82.898 15.479,19.735 46.31,42.984 61.274,56.45 .765.643 1.523,1.327 2.268,2.024l.245.21-.006.008c5.11,4.845 9.687,10.942 13.238,18.05 11.969,23.991 7.817,50.369-9.295,58.912-17.104,8.538-40.688-3.982-52.667-27.982-3.553-7.109-5.67-14.427-6.472-21.432z" fill="url(#e)"/>
 <path d="m374.025,580.802c0,.009-.013.009-.013.009-.021-.107-.054-.228-.087-.339-.297-1.067-.585-2.127-.833-3.187-5.573-21.089-12.656-62.44-24.139-86.938 20.503,17.646 58.425,35.604 77.241,46.646 .948.512 1.896,1.072 2.837,1.653 .107.054.214.12.305.178 0,0-.008,0-.008.008 6.473,4.041 12.583,9.536 17.753,16.352 17.456,22.997 17.716,52.195.569,65.207-17.144,13.012-45.203,4.914-62.655-18.087-5.169-6.817-8.818-14.18-10.97-21.502z" fill="url(#d)"/>
 <path d="m267.735,610.693-.015.004c-.015-.144-.028-.301-.037-.449-.165-1.418-.302-2.832-.386-4.229-2.6-27.994-2.855-82.033-12.206-115.671 22.196,26.946 66.318,58.141 87.761,76.33 1.101.866 2.177,1.789 3.253,2.737 .115.091.227.19.342.285 0,.008-.008.008-.012.012 7.33,6.556 13.886,14.888 18.985,24.68 17.222,33.065 11.396,70.171-12.999,82.874-24.399,12.71-58.133-3.798-75.35-36.862-5.101-9.798-8.161-19.948-9.336-29.711z" fill="url(#c)"/>
 <path d="m118.42 332.16c1.297 0 2.593 0.033 3.882 0.103-0.46-4.906-0.717-9.87-0.717-14.892 0-88.646 71.861-160.51 160.52-160.51 65.617 0 122 39.398 146.88 95.815 4.292-0.495 8.642-0.775 13.057-0.775 62.404 0 113 50.587 113 112.99s-50.591 113-113 113h-323.62c-40.245 0-72.869-32.628-72.869-72.867s32.624-72.863 72.869-72.863z" fill="#d3dee8"/>
 <path d="m164.7 244.78c0 42.276 52.558 76.549 117.4 76.549 64.83 0 117.39-34.273 117.39-76.549s-52.558-76.553-117.39-76.553c-64.84 0-117.4 34.277-117.4 76.553z" fill="url(#b)"/>
 <path d="m118.42 448.44c27.114 0 50.756-14.822 63.3-36.792 14.125 28.353 47.124 48.246 85.593 48.246 47.177 0 86.118-29.928 92.1-68.691 20.631 22.115 49.998 35.951 82.626 35.951 53.75 0 98.706-37.542 110.14-87.824 1.839 8.089 2.853 16.5 2.853 25.153 0 62.403-50.591 112.99-113 112.99h-323.62c-40.245 0-72.863-32.625-72.863-72.863 0-4.972 0.499-9.821 1.445-14.517 6.73 33.284 36.143 58.346 71.418 58.346z" fill="url(#a)"/>
 <path d="m33.089,405.025c0,47.042 38.276,85.322 85.329,85.322h.043 323.576c2.437,0 4.845-.086 7.252-.227 65.81-3.769 118.203-58.486 118.203-125.228 0-69.173-56.277-125.45-125.455-125.45-1.851,0-3.689.058-5.528.14-28.522-56.401-87.009-95.176-154.411-95.176-95.382,0-172.979,77.592-172.979,172.966 0,.952.056,1.888.072,2.833-42.723,4.614-76.102,40.887-76.102,84.82zm12.466,0c0-40.243 32.618-72.863 72.863-72.863 21.967,0 41.647,9.734 55.007,25.112 3.016,3.472 5.706,7.228 8.033,11.23 3.317,5.719 5.858,11.932 7.533,18.508 2.504,9.107 13.82,6.246 12.552-1.184-2.449-10.604-6.875-20.458-12.874-29.152l.021-.029c-2.42-3.509-5.098-6.819-7.996-9.92-.008.008-.023.025-.029.029-10.697-11.424-24.486-19.917-40.023-24.114l-.07-.025c-1.313-.351-2.645-.668-3.98-.957l-.367-.086c-1.247-.268-2.504-.495-3.766-.705-.208-.033-.415-.078-.623-.115-1.202-.19-2.42-.342-3.636-.479-.264-.033-.532-.074-.796-.107-1.233-.128-2.47-.214-3.723-.289-.251-.025-.493-.05-.744-.058-1.497-.083-3.007-.124-4.519-.124 1.08,0 2.154.049 3.222.083-.006-.8-.058-1.6-.058-2.408 0-88.646 71.861-160.511 160.515-160.511 60.938,0 113.949,33.968 141.136,84.007-.269.033-.536.066-.8.107-1.732.272-3.455.577-5.162.923-.898.182-1.781.388-2.68.59-.878.198-1.757.392-2.631.606-1.039.255-2.062.536-3.096.808l-1.983.569c-1.146.334-2.284.672-3.405,1.035l-.854.285c-4.333,1.443-8.555,3.096-12.661,4.976l-.033.013c-30.308,13.894-54.158,39.509-65.719,71.012-.008-.004-.016-.008-.024-.016-1.443,3.958-2.688,8.015-3.743,12.146h.017c-.603,2.366-1.126,4.757-1.592,7.173-.074.363-.124.73-.198,1.097-.358,1.975-.676,3.966-.948,5.974-.078.619-.164,1.241-.234,1.868-.215,1.855-.388,3.719-.532,5.595-.041.623-.099,1.241-.132,1.859-.152,2.453-.239,4.918-.239,7.405 0,.52.028,1.031.033,1.55 .017,1.22.05,2.432.095,3.648 .078,1.621.182,3.241.309,4.853 1.18,9.338 13.977,7.001 12.402-1.175-.231-2.931-.38-5.883-.38-8.876 0-7.986.842-15.774 2.421-23.294 .915-4.403 2.114-8.708 3.541-12.905 15.098-44.642 57.291-76.792 107.033-76.792 62.404,0 112.995,50.587 112.995,112.991s-50.591,112.999-112.995,112.999h-54.479-.086-224.643-.145-44.267c-40.245.001-72.863-32.627-72.863-72.867zm68.229-85.194c-.042,0-.083.004-.128.008l.128-.008z" fill="#fff"/>
 <path d="m358.95 314.28c0 30.534 36.598 55.288 81.752 55.288s81.748-24.753 81.748-55.288-36.604-55.288-81.748-55.288c-45.154 1e-3 -81.752 24.755-81.752 55.288z" fill="url(#g)"/>
 <path d="m64.951 372.58c0 18.083 23.513 32.744 52.513 32.744 29.006 0 52.517-14.661 52.517-32.744s-23.511-32.748-52.517-32.748c-29.001 0-52.513 14.665-52.513 32.748z" fill="url(#f)"/>
</svg>
